P3
5 5
255
2 119 161 37 193 111 133 186 74 164 188 153 5 137 110 
119 208 101 199 218 108 144 51 221 85 49 219 145 158 205 
8 63 247 201 175 250 131 249 31 63 146 164 200 0 72 
153 102 77 115 210 196 167 176 139 216 139 28 119 88 113 
182 80 2 101 74 10 94 105 212 240 13 87 241 85 151 
