P3
50 50
255
30 234 76 66 191 27 117 119 133 33 175 219 133 124 41 49 58 42 202 207 223 187 185 61 231 90 114 35 197 189 13 17 99 204 45 129 67 178 195 242 142 57 111 183 90 169 225 223 120 192 17 50 254 219 140 112 151 82 45 126 99 145 161 144 18 174 67 214 123 209 15 190 136 105 177 105 72 32 42 89 201 40 53 66 152 204 116 197 74 0 86 236 82 105 154 182 63 21 70 78 212 137 183 133 90 255 165 226 89 110 76 142 176 118 90 36 158 164 37 54 144 119 251 43 45 82 64 116 187 20 253 250 153 88 72 62 58 255 173 134 254 93 252 87 130 154 229 167 208 63 
30 204 228 76 30 116 192 217 159 189 211 224 21 27 244 80 26 142 214 24 204 211 112 121 109 85 215 62 149 89 10 121 0 40 237 30 1 141 106 212 109 42 239 97 232 9 239 253 33 188 77 145 53 36 231 12 247 124 101 100 245 101 162 226 132 172 111 238 212 220 25 213 62 1 169 45 254 152 233 76 161 31 112 195 43 103 84 145 203 59 246 110 183 122 26 172 105 239 143 130 196 254 131 110 219 129 6 25 205 168 70 61 107 48 164 191 79 112 251 122 222 178 11 248 95 2 231 238 124 172 236 229 26 199 103 32 224 234 200 39 108 51 87 57 243 166 119 238 32 27 
160 44 139 255 46 105 237 170 98 218 144 73 161 247 245 130 226 15 169 78 48 0 135 248 166 254 44 198 26 31 242 165 13 32 15 173 203 113 173 91 186 154 82 176 116 52 191 22 130 239 152 10 232 65 8 20 65 34 51 231 200 64 173 215 237 160 72 154 192 2 53 139 178 169 230 114 191 57 97 87 109 73 152 240 93 217 250 144 192 2 208 110 37 190 14 237 88 206 196 141 90 12 55 64 14 246 121 193 78 231 51 230 215 148 192 209 222 128 211 59 238 248 204 252 229 156 203 169 90 37 181 179 101 196 64 223 133 119 198 184 110 157 76 188 110 42 162 65 102 98 
58 50 227 31 206 209 201 41 206 126 220 153 66 28 190 199 148 35 127 2 2 204 190 200 246 96 101 92 195 211 142 166 21 93 119 79 134 69 110 98 222 55 126 156 182 18 192 248 20 194 192 210 139 63 51 240 11 246 196 2 156 217 94 19 40 237 89 150 74 55 206 208 212 132 50 148 124 176 86 60 195 225 124 215 210 135 170 150 137 221 111 232 211 151 213 111 45 31 130 251 239 219 127 33 19 252 209 231 56 148 123 180 108 209 60 22 179 197 243 133 173 198 27 130 53 138 161 183 33 144 147 78 177 166 74 131 141 201 23 8 197 131 217 254 153 140 178 140 17 238 
82 44 180 135 182 97 63 215 228 210 38 133 120 112 22 5 57 199 13 255 74 230 253 98 115 175 229 132 158 127 177 82 11 103 179 94 63 151 229 101 29 36 213 51 246 14 250 110 13 69 115 10 167 128 186 140 103 88 11 218 170 23 94 93 117 15 245 90 119 18 127 182 69 117 27 63 228 240 132 87 254 43 216 12 184 63 22 195 25 208 218 119 40 79 135 210 170 254 48 41 180 37 158 207 55 130 191 124 218 189 187 178 201 64 241 224 107 10 176 35 129 217 231 8 171 193 6 219 17 186 0 187 137 55 228 72 179 130 6 111 5 207 175 223 175 26 145 96 62 130 
57 37 140 228 230 13 192 247 22 192 178 28 248 150 215 171 25 96 26 30 169 201 253 175 228 142 126 34 16 46 71 156 142 45 169 199 37 191 171 215 220 107 110 179 44 135 19 36 165 188 207 162 107 234 48 234 179 64 24 151 220 166 185 133 109 0 69 24 46 33 132 83 212 176 42 231 212 152 164 163 31 15 141 196 249 65 102 17 216 150 183 146 214 36 146 178 61 192 56 193 19 125 113 62 158 69 214 114 232 246 89 118 186 253 183 33 13 143 183 6 33 142 24 180 64 207 116 120 244 136 245 49 198 147 242 156 5 99 146 95 168 77 92 144 110 105 6 37 112 189 
179 136 77 244 87 110 108 75 34 98 124 151 245 110 31 251 209 229 90 121 129 182 10 20 32 16 97 144 206 207 24 27 244 111 137 168 187 172 156 55 67 8 166 98 106 119 71 96 241 200 91 251 220 181 11 61 107 217 12 139 244 1 27 126 169 51 42 69 163 109 77 94 207 184 149 22 24 59 222 115 179 187 40 164 248 147 159 5 31 170 6 58 132 175 110 120 244 17 246 65 111 32 249 4 141 17 64 92 132 243 114 172 151 81 64 54 12 95 224 4 153 100 9 7 221 15 24 211 190 135 244 178 140 129 244 204 222 237 191 80 255 86 161 131 140 173 48 108 178 112 
209 187 207 174 203 104 129 137 112 117 60 136 247 48 16 213 29 156 37 28 104 199 160 39 116 208 125 38 64 9 226 15 117 173 119 70 54 231 244 114 112 118 162 128 235 192 28 226 220 132 183 124 171 221 76 40 164 140 49 24 155 166 63 19 237 33 250 225 206 106 87 4 234 67 119 6 37 25 138 221 217 53 186 182 93 94 50 142 118 127 53 181 11 34 214 167 3 164 186 91 169 180 158 32 31 195 57 9 160 19 16 90 201 154 184 251 208 47 122 45 228 134 188 187 45 241 95 231 19 8 155 22 40 186 113 98 196 15 117 212 211 62 110 115 57 62 206 180 108 134 
58 40 181 103 25 154 78 44 85 233 66 180 164 180 189 104 195 229 60 150 71 170 10 188 233 216 250 85 94 52 125 20 232 150 174 34 194 3 137 4 183 215 184 116 192 124 90 100 18 161 204 28 94 8 244 88 179 83 140 156 103 116 241 21 150 110 24 31 4 207 246 198 68 183 202 158 27 131 63 232 255 157 240 17 246 163 46 130 63 34 247 48 117 141 158 220 173 162 241 163 104 9 90 51 217 118 182 29 94 181 187 78 198 250 242 244 152 49 23 142 98 140 16 0 105 7 163 90 149 11 100 66 62 61 229 244 90 64 169 21 182 112 15 20 100 167 98 123 53 84 
8 70 134 113 77 232 203 226 232 47 36 139 108 10 151 198 74 213 219 0 202 235 20 115 146 118 227 200 203 72 14 81 195 91 57 203 62 33 60 98 173 8 108 68 55 182 25 164 182 227 106 202 87 70 65 58 49 12 130 195 93 70 139 150 17 153 183 78 245 100 86 51 168 141 149 194 49 2 165 156 184 252 226 111 55 19 57 185 214 122 255 98 134 17 251 227 95 240 121 181 35 49 66 185 149 116 187 62 16 115 0 242 226 165 5 28 162 219 150 217 61 29 146 57 0 146 41 122 163 77 171 2 6 64 183 193 126 249 52 126 109 23 36 125 51 198 111 201 159 116 
230 49 80 231 195 141 97 102 198 12 104 240 76 31 61 203 25 67 73 134 4 109 4 56 51 115 79 210 232 130 4 56 76 199 197 50 46 140 25 150 124 122 182 185 134 207 252 211 85 0 158 89 56 231 205 136 85 181 10 136 237 86 91 178 137 95 62 162 38 186 29 84 115 163 235 111 118 161 111 20 112 168 252 197 48 81 31 58 217 236 145 52 161 26 147 142 188 186 64 217 14 127 125 249 57 243 154 173 8 10 28 4 208 140 85 239 52 46 219 100 99 124 158 246 10 47 176 74 73 191 201 6 184 3 223 83 176 92 93 204 80 45 88 88 28 140 92 247 240 177 
115 143 223 125 190 66 200 8 57 145 14 233 148 237 168 68 74 97 17 154 180 105 242 17 246 78 63 230 255 91 117 222 83 52 33 198 60 90 68 74 67 12 55 236 157 129 77 50 27 1 118 13 18 135 91 81 241 90 173 231 57 0 205 90 198 67 180 10 119 247 22 179 227 180 253 48 230 52 49 92 182 68 228 209 149 213 223 66 188 58 66 137 149 9 204 206 19 67 40 42 246 220 222 243 211 196 40 183 32 222 231 4 175 25 217 142 93 149 201 242 31 94 53 235 44 119 47 84 128 37 48 148 25 3 190 65 186 156 31 162 96 206 187 128 93 24 133 38 10 94 
132 63 244 176 183 19 4 55 254 52 203 45 55 137 83 242 37 108 148 133 173 79 6 204 103 139 154 113 233 247 177 221 29 104 240 161 159 239 81 107 28 85 244 111 137 26 219 193 159 136 179 165 84 71 48 239 150 26 230 253 247 4 110 232 165 31 215 247 135 243 76 39 99 214 146 62 151 134 199 74 160 27 145 64 10 39 229 241 36 22 245 146 48 154 178 39 145 57 15 222 96 230 180 242 218 75 121 61 149 25 123 38 89 66 77 63 94 113 85 104 3 133 89 181 172 78 239 188 233 79 162 122 66 124 88 187 185 12 212 53 87 46 119 236 109 213 18 194 62 95 
71 151 208 243 230 212 175 207 137 82 73 120 206 162 200 136 174 10 189 6 197 52 242 153 10 5 199 72 100 52 223 53 246 197 9 61 148 146 49 222 11 224 128 211 50 46 221 1 52 162 137 39 59 70 44 3 122 144 55 132 197 46 204 206 107 172 97 156 113 108 125 6 63 175 228 28 176 100 190 57 146 249 127 199 252 250 238 52 126 26 98 75 170 205 247 112 106 104 62 231 110 159 150 82 11 71 182 74 128 73 102 0 16 36 250 254 30 120 24 26 195 194 78 186 50 176 35 113 126 145 16 232 228 28 207 154 102 101 227 205 172 243 241 45 241 15 45 9 42 39 
204 120 159 254 41 99 111 167 29 128 143 64 156 94 210 2 195 182 207 112 80 193 157 52 208 202 39 250 241 25 115 144 34 156 243 238 67 17 237 210 81 92 48 35 220 243 217 120 99 42 123 0 94 74 202 133 11 187 158 220 76 193 214 63 175 73 80 156 229 162 249 40 197 213 250 159 78 42 201 201 30 39 19 129 172 31 130 75 251 76 12 209 8 187 27 84 88 0 147 81 41 228 38 35 134 116 78 75 61 108 234 81 237 179 112 111 218 107 188 135 60 196 210 87 24 222 88 171 153 129 143 241 164 21 66 242 97 105 94 75 221 76 255 27 187 217 108 119 96 220 
59 50 71 83 16 131 255 170 219 142 155 51 164 222 180 5 71 88 80 36 75 79 63 169 41 171 245 137 135 177 188 206 40 204 82 100 118 45 183 18 96 182 240 20 69 55 108 233 91 183 238 155 97 62 70 86 142 206 7 183 156 48 64 238 148 252 27 75 201 123 2 63 143 71 81 252 48 65 179 30 120 20 92 212 107 234 111 114 161 181 162 226 131 54 222 32 130 167 14 132 231 42 203 56 165 251 122 53 25 242 49 117 198 228 96 53 249 1 235 100 227 110 214 194 142 121 105 157 175 80 199 49 137 108 181 3 161 128 245 210 123 188 183 148 241 176 10 220 20 106 
75 234 107 217 99 79 118 19 17 61 68 122 170 250 203 75 122 84 30 246 87 213 138 76 133 148 8 153 254 250 131 106 214 231 185 33 250 202 251 62 68 113 56 15 175 179 99 89 169 186 164 51 7 194 200 15 151 198 9 28 48 224 181 233 1 57 179 252 32 248 110 26 7 29 88 107 118 145 37 26 68 44 221 237 60 116 32 69 145 232 37 70 175 39 127 223 35 159 201 145 185 124 174 18 116 36 163 124 63 231 231 28 212 12 144 244 57 33 221 117 104 140 186 231 107 224 135 52 7 64 177 42 82 37 188 245 161 106 220 136 143 176 149 206 165 206 234 130 67 122 
14 253 156 121 221 4 174 228 235 95 15 114 132 203 179 38 53 5 174 196 251 67 146 215 17 124 136 84 247 45 82 147 175 47 151 189 20 130 54 35 245 228 238 168 67 35 173 200 232 168 238 122 128 156 247 8 224 238 53 241 129 228 70 24 161 152 154 215 199 143 188 219 55 255 254 229 199 236 141 181 16 13 82 248 21 50 114 74 35 105 46 105 87 207 1 216 167 201 240 99 164 139 98 163 26 42 143 82 223 159 55 49 151 196 99 10 210 135 115 231 240 203 50 242 163 96 187 148 48 95 31 215 2 57 58 146 139 156 49 194 198 201 135 166 211 89 215 70 64 59 
17 114 194 181 211 178 73 3 164 104 218 95 161 20 191 45 176 193 239 119 83 118 29 133 207 244 78 16 47 33 130 241 103 85 164 121 88 72 46 50 168 119 70 103 223 247 40 128 110 124 173 139 1 157 127 79 19 175 112 227 160 215 243 68 80 117 141 126 203 53 245 35 156 212 86 196 85 156 64 2 147 65 159 1 144 179 140 0 150 12 216 137 187 40 254 91 167 201 160 156 237 45 113 67 98 198 223 254 200 115 194 104 116 3 27 1 68 177 13 213 58 200 213 56 35 173 2 195 214 239 240 125 50 82 25 17 80 138 132 19 80 249 22 25 250 90 129 7 47 156 
207 5 77 242 178 135 182 136 191 166 5 193 249 31 176 73 169 226 92 250 244 114 19 120 205 148 113 252 48 107 1 125 114 180 4 65 60 195 52 66 133 234 97 53 144 10 24 137 4 12 211 23 132 47 171 246 162 219 97 111 88 212 107 92 21 109 32 73 33 165 51 93 218 196 159 242 77 0 254 32 11 131 80 15 121 242 39 218 97 210 174 204 174 196 57 6 13 90 99 65 184 131 5 87 40 82 88 2 115 99 245 195 114 243 181 153 118 22 108 239 226 26 202 28 32 120 118 131 60 46 6 74 134 46 139 222 49 144 65 38 226 179 25 85 77 144 24 185 127 205 
211 73 227 243 194 198 119 254 226 125 72 88 172 211 135 221 99 13 3 70 235 28 155 44 172 180 223 44 129 44 117 101 229 55 43 184 54 13 172 126 101 35 82 236 160 181 249 76 251 228 41 151 16 44 75 240 73 204 28 245 49 2 33 92 186 151 105 102 206 207 137 4 187 42 131 181 118 213 153 160 138 170 204 134 154 21 29 182 11 104 184 44 52 115 195 102 217 146 194 99 150 44 141 25 251 3 238 182 163 121 107 112 255 5 133 28 175 144 132 73 189 184 255 128 30 184 18 225 43 169 13 4 194 8 103 177 190 244 42 42 248 41 47 155 69 222 11 201 39 145 
129 38 33 160 222 222 129 9 95 142 14 113 150 117 26 84 106 221 126 98 142 173 253 184 139 9 225 178 154 38 217 187 239 183 154 112 193 249 16 207 106 145 68 133 31 174 98 181 16 240 10 14 168 136 23 137 54 177 175 193 108 158 116 6 14 77 255 31 4 106 176 197 239 208 148 81 133 217 65 143 135 233 24 152 114 78 166 33 15 189 191 131 110 205 208 218 236 213 225 157 154 224 109 47 74 242 8 57 130 143 138 154 39 203 232 205 180 247 138 38 123 248 71 75 211 6 32 180 212 187 148 192 234 223 93 242 24 202 129 163 189 169 110 63 118 35 217 1 73 193 
249 145 184 204 151 51 128 107 127 21 44 159 244 137 90 12 84 68 175 17 54 30 80 184 65 41 97 138 234 215 27 162 216 179 214 210 30 85 158 74 244 31 212 79 52 40 147 40 57 202 52 137 130 228 178 227 2 156 186 67 62 147 205 20 101 233 105 3 156 94 34 186 173 86 5 64 126 217 10 179 1 140 151 58 111 153 195 42 220 117 189 169 17 34 146 79 37 46 100 72 233 205 158 238 43 29 199 216 208 200 25 103 2 35 0 197 176 220 58 31 133 75 73 24 154 6 70 254 40 47 204 78 29 247 150 228 208 52 172 233 81 174 12 33 115 188 136 173 220 136 
248 37 100 147 44 234 145 84 2 93 162 72 85 56 120 37 109 149 14 190 122 26 224 38 215 104 213 179 241 72 216 85 246 4 63 238 89 65 129 251 138 19 52 2 112 161 151 197 95 17 234 63 56 248 168 13 19 153 85 234 238 75 157 46 58 117 111 187 122 249 206 211 251 63 206 147 4 2 164 239 163 220 231 3 233 250 66 63 228 234 138 129 131 196 247 114 128 113 160 78 68 15 141 18 9 146 21 4 129 184 151 104 187 60 99 254 24 71 232 2 201 108 65 192 222 203 49 126 144 117 141 16 135 150 94 156 155 236 85 50 126 16 110 255 14 135 103 247 137 202 
99 202 18 65 149 219 191 37 155 76 53 204 227 148 65 126 128 200 176 254 101 31 253 186 166 100 202 47 47 217 249 65 208 142 28 51 180 183 116 233 131 51 125 196 127 253 140 98 251 241 224 248 171 145 93 118 176 140 79 86 205 31 133 233 82 126 160 198 12 35 249 192 231 120 170 115 219 39 101 187 37 16 76 32 134 252 25 213 82 118 244 215 2 70 85 207 12 98 184 5 34 88 126 204 123 89 244 98 20 25 213 97 57 58 93 82 75 176 200 209 135 202 167 221 153 155 63 81 226 97 169 238 46 36 244 34 134 114 59 92 203 116 150 223 199 225 64 143 179 158 
90 90 78 243 245 213 69 215 178 238 198 241 19 186 83 153 44 129 245 247 163 140 214 222 109 23 82 32 181 25 122 3 169 112 216 3 71 139 246 13 124 59 199 207 42 243 80 61 234 243 214 193 209 204 216 36 88 141 61 197 144 230 230 104 233 96 243 224 208 112 27 24 63 69 37 144 130 237 131 89 224 85 37 203 121 125 140 182 66 100 157 40 241 134 137 129 102 89 233 130 113 221 199 151 77 74 132 140 163 100 28 200 47 160 69 187 245 135 31 110 176 16 36 57 145 193 146 123 72 4 88 174 155 165 48 31 49 248 131 78 66 179 238 229 110 227 173 142 81 242 
158 117 121 48 55 41 171 127 98 3 45 245 168 94 249 217 86 148 39 152 179 21 125 54 248 42 233 73 28 88 191 149 230 246 191 132 117 33 180 162 22 95 0 15 98 86 163 10 238 86 228 107 141 11 149 118 33 177 206 25 71 180 99 6 57 34 39 237 24 62 77 141 77 175 47 241 186 48 71 158 134 212 169 117 75 202 224 25 228 118 206 71 39 7 105 110 244 129 116 65 14 156 241 61 218 171 109 39 73 244 24 242 105 96 189 73 52 161 191 127 232 231 153 81 85 103 210 202 110 224 102 98 29 64 164 139 103 149 127 128 64 232 224 137 49 20 123 241 148 56 
216 45 217 45 148 193 247 2 18 93 100 228 157 8 196 5 157 226 133 221 109 101 102 236 121 226 212 13 26 5 58 244 246 206 181 206 208 200 252 53 172 243 61 113 81 219 83 238 184 192 243 31 172 120 1 128 221 27 133 87 15 124 100 197 74 159 141 70 109 57 58 62 170 139 115 253 121 176 189 109 139 105 229 68 233 195 99 111 26 100 235 126 127 53 29 143 124 139 84 182 201 225 65 60 26 186 236 197 39 120 194 13 188 128 208 31 233 234 131 211 104 2 66 134 145 45 17 229 98 218 198 222 22 225 148 2 166 213 122 104 144 54 232 183 85 210 196 216 165 148 
219 231 126 108 20 231 82 118 109 24 85 126 249 233 88 159 191 110 8 79 112 240 6 235 194 203 33 103 95 119 78 222 79 98 197 42 217 50 151 46 176 233 23 8 1 214 118 251 37 230 154 44 209 162 247 243 147 86 106 85 52 185 189 249 228 11 43 123 110 219 100 71 227 101 117 89 96 140 64 251 99 17 157 136 4 48 180 110 134 171 40 67 2 12 78 54 135 188 48 235 3 91 80 120 55 177 5 26 172 104 116 73 240 180 122 165 197 0 80 202 67 82 56 145 137 96 78 185 108 81 20 243 202 75 222 207 102 47 55 218 224 39 142 140 204 83 213 29 29 79 
111 86 79 248 182 146 177 35 36 198 22 114 17 245 195 119 36 141 81 4 92 223 144 147 51 101 187 80 181 135 166 4 164 93 151 20 128 187 12 150 45 190 139 240 132 175 126 149 179 218 13 67 110 94 169 41 62 94 176 113 98 85 193 249 105 104 180 117 197 225 51 69 210 183 219 80 77 103 42 90 22 152 184 202 193 246 13 114 103 182 199 41 20 48 145 119 165 86 112 217 155 37 144 118 6 221 221 216 55 244 40 240 190 83 230 203 235 78 130 173 119 150 31 8 13 230 94 126 22 249 163 187 111 169 148 77 130 37 65 170 2 255 253 58 202 233 42 76 150 16 
227 181 94 240 155 213 110 177 221 17 108 59 187 1 52 61 38 164 231 40 241 229 98 50 206 140 49 100 157 251 25 251 72 180 209 43 101 174 27 209 234 138 210 30 155 248 194 86 33 179 147 131 229 123 16 22 96 173 18 46 168 90 146 121 133 171 40 160 95 18 42 196 48 198 149 243 28 104 166 176 96 140 43 129 162 139 5 180 185 21 14 75 194 147 246 106 52 85 228 94 25 12 36 174 30 65 22 78 241 119 65 28 248 232 167 253 116 96 18 22 171 212 203 161 63 217 246 35 109 15 47 161 189 77 255 212 155 36 75 221 101 67 197 86 65 57 114 83 79 25 
40 26 121 103 244 36 138 97 197 185 2 187 6 1 202 161 37 135 126 138 91 67 224 166 124 82 234 204 107 43 230 228 126 218 8 166 59 205 13 61 136 151 63 82 80 100 218 86 239 53 248 207 220 118 34 198 186 141 241 54 114 111 2 122 22 233 72 35 195 208 187 255 35 11 60 253 98 123 50 90 224 14 208 207 212 138 158 197 193 192 53 195 78 75 172 192 110 112 58 41 111 130 53 171 83 151 39 118 241 7 115 193 214 165 76 116 180 13 53 136 208 131 78 125 67 131 237 125 206 92 0 60 7 83 102 46 201 155 53 60 50 11 225 35 128 149 228 181 30 48 
56 108 61 123 239 14 248 189 139 248 249 120 75 95 212 20 250 219 80 44 10 50 79 63 199 52 75 229 100 203 81 162 128 64 176 184 253 59 51 247 179 43 86 135 36 81 98 111 125 108 132 205 172 212 1 247 6 101 194 206 7 66 179 183 250 5 242 45 69 165 88 67 44 124 58 143 236 144 251 112 225 167 68 95 158 75 44 96 25 45 162 204 146 156 209 154 201 23 81 34 90 68 158 148 233 138 36 22 250 6 165 63 101 160 138 145 72 163 190 230 111 80 71 65 234 233 88 60 134 178 128 79 70 105 113 106 127 16 112 36 154 213 197 149 102 13 212 36 243 94 
117 58 1 95 36 112 155 170 177 27 249 9 133 107 187 4 123 1 41 21 108 238 170 220 251 126 178 238 220 24 41 221 61 77 78 178 247 255 17 240 9 173 91 196 200 214 198 77 236 50 82 150 14 123 21 192 105 241 217 100 207 22 82 29 200 123 28 217 200 37 134 191 234 79 176 176 156 11 226 238 226 240 105 206 177 210 100 138 54 121 160 137 107 104 4 58 65 205 87 200 140 115 23 60 153 179 72 131 162 42 51 11 248 21 222 92 5 20 214 182 157 65 64 162 123 224 111 210 72 251 69 138 56 222 82 128 97 105 170 148 28 162 169 190 254 175 202 212 101 168 
21 166 188 144 134 90 98 207 252 168 89 107 134 171 102 232 20 158 124 48 30 38 239 200 213 185 106 58 97 105 224 29 61 103 119 83 54 115 227 143 222 70 58 69 238 78 227 116 126 2 92 109 202 217 38 53 255 135 158 212 165 219 14 28 46 239 144 18 86 110 88 140 179 70 27 151 186 85 153 23 163 99 240 33 152 239 143 54 195 181 18 209 61 64 192 226 82 22 254 170 162 142 240 189 253 171 18 176 194 181 71 178 215 224 161 102 68 100 27 220 53 88 19 246 58 37 12 57 101 175 199 184 108 196 98 127 117 83 52 188 254 11 157 192 113 225 114 141 189 19 
229 208 119 32 245 172 89 91 162 32 19 175 229 117 94 90 200 202 22 198 73 179 134 126 148 248 137 82 11 251 34 130 136 24 47 109 115 209 141 134 128 230 251 222 7 196 169 236 138 242 70 17 112 92 9 250 16 21 245 164 151 125 246 198 234 25 152 120 49 24 94 164 247 101 42 160 81 37 146 151 233 3 244 116 253 4 133 242 168 142 111 159 163 89 184 59 209 233 1 48 141 153 149 183 178 231 220 169 126 198 73 114 58 219 118 191 222 31 77 219 190 241 205 118 44 60 95 45 150 236 199 103 163 121 151 127 34 45 69 107 20 127 70 146 62 37 5 140 0 123 
125 206 154 169 10 88 214 160 206 157 8 45 22 159 25 56 204 188 163 224 60 234 115 129 15 120 1 15 243 63 221 142 203 232 230 72 136 181 241 144 226 200 48 252 101 252 184 124 221 244 180 80 118 88 200 119 66 187 182 81 73 130 96 48 202 62 229 188 38 199 132 174 195 233 63 124 101 111 112 26 107 230 114 72 93 180 152 20 5 96 150 101 28 96 163 101 28 201 149 160 120 122 138 183 66 239 38 5 9 145 129 123 218 242 47 114 216 52 211 54 154 239 74 61 84 224 7 234 64 127 100 93 54 166 253 92 172 135 237 45 119 199 31 128 58 248 252 13 46 43 
252 120 96 80 88 250 58 152 55 159 245 62 69 243 189 241 122 243 31 241 79 62 114 61 54 110 4 100 153 62 220 249 75 52 243 71 205 43 152 194 105 210 181 39 113 48 26 183 33 106 168 147 167 199 1 171 6 155 234 60 148 53 161 136 125 125 179 21 178 28 231 127 67 89 65 94 16 247 200 184 39 111 128 72 26 134 220 4 194 221 58 99 120 183 225 13 204 147 149 179 18 72 12 83 100 28 74 168 213 113 6 85 186 206 219 150 61 157 115 87 1 236 92 226 249 150 117 142 77 135 214 25 218 58 204 37 226 217 150 232 245 80 182 202 230 243 31 90 75 250 
70 167 152 63 61 153 205 138 123 163 163 240 221 111 119 192 72 81 168 62 118 95 8 13 82 40 93 157 34 68 68 186 158 129 83 228 11 206 35 174 190 240 30 53 147 102 135 112 164 253 48 173 10 217 213 104 56 247 172 138 178 74 40 5 46 108 212 81 238 146 65 249 200 212 168 79 68 198 76 117 44 87 78 209 191 134 126 107 16 83 181 56 74 227 165 252 52 147 2 117 140 214 73 52 104 141 250 48 2 39 127 80 248 204 214 118 35 231 201 226 31 19 77 196 16 2 87 18 229 228 232 25 24 80 142 19 129 215 58 0 100 50 204 103 168 239 183 113 209 142 
132 30 117 148 32 148 166 5 89 142 30 176 223 172 148 96 131 173 96 232 192 45 79 250 28 6 44 238 148 212 12 9 69 45 158 201 50 247 94 81 167 4 253 60 147 129 233 114 105 169 210 184 163 50 190 207 95 83 163 124 92 232 106 250 177 118 241 15 163 153 20 214 213 167 39 190 25 36 103 235 165 10 29 14 217 125 198 124 249 133 100 99 216 21 217 52 37 125 47 57 83 32 224 122 185 249 158 142 228 68 76 1 82 179 126 25 189 119 158 150 218 118 18 180 170 118 49 217 140 132 250 177 254 179 234 156 66 202 224 142 195 51 66 167 76 255 168 234 150 39 
96 168 158 10 31 121 228 171 45 222 92 94 145 70 226 211 16 224 98 211 124 164 122 93 163 34 144 57 73 220 226 232 198 1 97 38 172 142 48 8 236 20 78 206 242 94 174 132 49 42 87 171 135 185 205 23 93 23 243 1 255 185 58 96 223 28 238 16 29 218 36 201 168 23 209 86 155 31 128 242 125 8 172 174 31 9 89 19 10 39 204 69 62 172 97 61 188 127 157 224 72 139 247 26 101 146 57 13 133 183 99 49 101 227 58 191 235 69 230 11 138 36 30 235 97 234 106 254 150 179 137 82 205 238 51 6 251 42 189 94 189 35 65 66 226 45 115 200 56 173 
236 86 242 77 64 124 75 215 104 212 41 210 194 92 133 189 135 82 27 68 89 92 134 22 137 249 57 193 166 27 23 153 227 88 21 207 47 125 28 88 80 103 181 213 59 60 40 253 128 129 186 6 151 213 255 209 50 165 236 187 62 208 125 84 159 148 209 188 236 33 35 27 247 95 116 31 92 41 160 23 101 55 236 229 8 30 235 245 218 234 197 87 143 100 235 206 32 216 34 68 243 243 163 103 21 255 144 12 22 245 43 3 218 203 33 197 2 251 175 11 82 63 0 62 13 197 22 47 41 9 34 74 113 55 142 1 67 49 247 110 48 209 57 71 151 60 74 70 71 107 
133 71 103 146 12 185 193 53 247 228 127 13 27 13 23 95 62 136 205 111 137 7 182 128 67 0 82 138 107 233 209 210 47 221 140 181 18 131 71 146 145 9 159 168 237 222 48 8 77 185 103 3 58 53 3 140 60 110 117 127 65 164 9 205 89 218 80 161 183 225 170 201 137 151 91 185 159 251 115 7 217 173 60 38 57 120 41 174 247 44 82 0 154 172 218 219 77 145 168 247 90 249 142 182 218 45 177 100 52 138 29 112 176 144 232 217 61 223 5 118 223 159 36 185 123 119 74 35 35 165 28 112 91 247 103 12 91 245 150 120 34 70 9 87 31 70 199 36 189 176 
195 225 143 62 88 111 98 123 40 126 235 115 117 82 24 208 71 115 73 106 127 82 193 21 152 136 91 85 56 122 55 200 158 143 55 97 11 95 160 246 210 2 73 234 128 144 93 246 250 220 198 187 241 15 68 76 97 124 198 250 68 100 79 123 198 134 219 102 22 173 104 33 152 232 23 245 222 96 210 165 241 195 180 235 16 22 167 214 16 235 59 95 103 1 230 172 103 252 39 207 29 2 183 52 176 150 149 72 59 134 61 239 113 15 5 24 211 21 3 227 117 107 185 91 23 244 87 62 245 116 65 92 168 241 43 61 57 227 195 118 121 53 134 180 77 89 163 81 60 169 
188 245 190 211 234 51 17 223 142 82 60 229 67 103 89 124 74 2 243 195 63 121 119 3 210 27 56 14 196 133 3 130 214 237 182 146 205 68 101 9 42 119 112 131 201 187 133 13 126 197 137 246 200 124 17 0 245 213 133 199 87 92 213 13 238 217 82 84 198 124 203 147 255 148 156 133 161 13 74 43 200 18 167 70 18 157 60 151 100 77 243 58 34 226 19 122 54 217 135 1 109 217 149 9 85 55 22 85 98 222 218 9 37 36 166 97 54 11 175 72 69 209 223 88 75 211 49 211 181 158 172 235 168 2 236 190 87 129 157 49 184 194 85 26 35 139 36 210 211 202 
164 178 213 239 133 26 194 58 114 111 37 164 113 17 66 200 147 234 249 75 169 78 102 70 217 138 8 172 84 43 94 42 254 228 68 162 30 183 145 68 91 84 85 157 195 232 136 52 52 49 252 154 119 245 36 127 67 120 170 28 162 168 200 231 74 38 158 220 10 249 48 41 150 243 109 30 39 194 79 35 171 198 24 223 69 91 121 240 119 157 152 63 21 227 101 184 191 112 159 239 153 61 226 6 54 9 200 204 44 115 235 68 82 58 159 203 1 22 104 70 85 126 54 186 54 207 42 213 178 195 18 113 201 72 96 146 20 66 5 255 75 88 58 119 35 59 187 140 129 90 
10 184 112 64 135 197 21 57 127 39 170 170 111 10 109 131 76 55 131 151 201 189 14 206 248 201 38 121 35 74 49 147 214 184 88 224 241 215 32 155 129 53 165 239 92 241 38 203 136 239 78 150 189 209 95 228 142 130 46 134 21 4 0 109 228 49 69 4 234 198 57 219 181 149 119 219 96 28 202 174 14 136 128 150 108 14 45 154 149 140 158 149 15 130 198 36 134 176 146 191 140 215 84 3 157 180 31 83 98 45 46 226 196 249 241 241 129 134 125 237 27 140 135 225 177 37 146 67 167 30 26 45 33 183 236 64 10 64 110 57 244 50 50 86 35 179 57 160 160 42 
45 39 176 222 76 203 33 243 172 59 32 62 242 12 92 253 76 125 54 64 190 104 150 44 27 207 94 187 249 129 226 169 33 46 116 78 33 33 44 65 95 77 77 188 136 153 57 123 217 247 120 111 35 174 63 129 22 56 2 49 226 36 236 86 114 206 119 159 252 215 236 29 147 117 94 204 240 171 196 104 68 231 22 29 105 44 140 107 93 203 143 73 4 2 23 230 161 19 60 141 48 180 2 142 139 242 57 30 90 125 234 112 154 174 156 38 150 249 242 255 66 246 106 89 220 250 108 24 252 156 204 157 42 87 42 99 117 45 224 96 31 122 14 122 161 164 234 147 163 135 
137 14 128 101 8 195 125 4 28 74 161 137 161 203 37 23 248 80 119 24 179 133 146 148 42 124 14 205 3 175 219 132 66 227 71 203 231 99 48 136 236 174 84 18 248 76 98 153 100 21 176 246 169 39 115 184 173 118 103 215 250 170 164 65 117 128 165 166 99 145 84 75 163 76 211 5 229 39 27 150 116 196 189 216 124 106 207 228 65 66 142 230 184 3 102 179 169 201 244 253 20 153 73 232 43 47 15 206 197 131 212 130 92 239 237 43 179 46 109 48 20 37 20 122 216 162 68 205 165 88 102 79 64 145 76 80 96 150 211 52 197 47 35 138 90 214 12 199 6 249 
237 26 40 197 188 60 146 98 183 249 177 251 138 253 83 234 147 148 30 88 228 65 226 183 24 239 231 30 232 65 57 16 9 245 77 246 87 4 187 8 255 78 6 82 71 153 230 209 242 202 188 212 130 218 195 105 28 172 170 52 188 179 82 9 169 139 13 101 129 12 179 216 95 250 225 69 203 231 16 135 128 146 98 114 251 126 71 165 178 10 89 4 182 2 144 115 103 17 124 26 233 138 20 202 150 224 177 245 103 50 59 201 164 75 71 235 221 249 246 216 254 172 125 142 31 214 159 156 217 136 38 64 83 188 91 4 178 111 54 237 79 219 56 183 198 21 128 188 237 200 
