P3
50 50
255
138 84 145 162 243 97 245 48 4 65 241 162 202 197 158 15 23 33 128 118 36 117 58 76 189 130 141 183 50 87 11 195 134 254 36 16 46 40 178 31 203 168 228 105 233 251 139 179 114 175 194 172 251 66 46 136 183 96 223 116 36 101 43 72 117 54 113 40 52 60 208 98 165 185 129 48 108 102 223 46 97 218 112 211 98 39 127 66 155 174 167 198 14 29 252 50 69 48 123 21 146 236 206 19 40 58 121 205 104 219 254 216 174 221 255 46 184 154 220 26 96 234 92 92 29 4 140 152 33 30 132 102 49 172 123 171 121 73 134 119 131 52 85 235 98 13 195 62 39 194 
41 132 92 70 136 188 222 169 24 98 15 164 14 138 194 135 211 243 255 86 158 84 65 36 97 4 89 136 198 187 12 34 250 148 222 35 61 246 105 76 154 71 214 92 169 169 79 183 255 238 62 64 18 61 68 107 145 10 39 242 44 33 123 10 68 135 0 173 28 154 244 89 246 157 166 70 84 124 52 146 38 70 208 37 178 97 102 217 84 170 250 207 181 62 86 225 235 114 236 223 204 236 124 114 135 208 238 125 98 20 195 50 58 247 148 160 62 232 74 240 183 255 201 13 225 195 128 205 1 76 185 236 190 64 203 172 190 71 193 129 23 251 121 121 155 183 172 229 167 64 
229 112 40 198 51 223 147 52 236 76 32 108 141 235 184 75 50 118 204 73 35 69 194 228 252 110 223 163 174 122 19 214 95 70 181 68 122 162 10 154 14 157 133 199 234 183 61 119 0 96 194 195 68 142 49 35 212 224 157 208 182 253 116 108 65 135 14 76 206 28 233 72 227 211 227 33 74 104 129 12 32 198 155 32 233 111 227 135 63 21 132 179 245 197 59 171 17 9 23 251 81 37 206 52 66 25 157 37 37 189 70 192 221 200 47 193 142 111 214 119 34 203 254 93 118 130 102 142 72 184 179 89 236 245 84 137 27 35 70 97 60 36 41 97 229 183 34 187 47 81 
134 45 192 252 176 227 138 248 64 62 81 167 51 166 95 78 201 75 176 5 213 217 102 27 145 136 63 192 218 36 237 154 223 157 125 101 149 190 98 231 101 236 141 196 42 86 15 94 91 228 172 193 0 92 74 63 54 36 100 199 190 67 135 60 169 116 250 11 18 95 247 167 35 34 142 50 128 27 23 44 113 23 137 204 86 191 142 186 134 216 254 13 252 167 129 186 178 147 246 169 59 240 203 201 79 75 229 114 120 86 165 1 35 188 192 177 211 70 137 41 83 133 228 212 63 226 104 54 137 163 38 59 108 118 228 81 232 176 168 141 251 203 73 115 124 28 116 5 70 52 
138 42 122 201 12 205 255 149 162 38 208 10 156 180 173 132 100 25 18 96 107 91 211 19 120 72 222 190 124 90 232 247 95 244 196 233 137 102 178 89 112 178 13 29 216 114 55 116 210 162 248 165 181 10 237 147 102 106 237 222 97 76 156 37 53 132 140 231 120 252 153 1 26 113 90 81 229 103 243 222 217 168 232 171 59 78 81 40 44 62 116 200 168 169 76 9 144 196 47 42 197 187 155 31 183 129 135 209 95 96 34 71 12 21 150 93 189 194 155 248 139 68 32 215 77 148 156 124 61 97 55 206 129 239 248 8 192 147 104 227 20 116 248 115 209 182 187 109 174 81 
177 207 19 254 99 158 123 161 118 178 111 18 161 103 115 98 250 244 69 15 252 61 130 101 243 61 217 162 142 171 113 162 24 212 64 201 117 182 199 228 200 66 75 60 245 70 48 150 85 45 248 215 146 61 21 107 123 163 22 110 69 46 16 134 247 129 60 191 86 5 1 203 65 246 176 113 141 251 158 133 65 48 195 150 156 62 110 178 172 131 225 189 38 216 62 108 151 148 242 153 96 46 143 16 51 28 11 116 162 77 230 101 227 132 163 81 181 79 212 81 12 251 3 75 103 228 223 89 189 63 135 84 79 187 237 91 47 125 168 21 153 139 154 59 221 79 160 177 160 67 
172 163 147 19 136 159 108 69 234 244 153 202 175 135 9 222 4 89 244 157 180 142 217 92 221 121 231 125 189 196 32 80 118 168 239 34 237 218 54 135 164 162 14 173 150 18 6 69 175 186 36 136 22 24 2 254 166 191 194 131 15 56 0 254 91 32 216 145 201 124 51 182 42 202 61 48 15 75 235 51 93 1 75 13 255 241 149 194 116 151 250 116 86 85 149 101 230 94 100 26 20 60 228 82 185 243 157 227 39 251 19 114 8 254 100 157 0 216 53 255 77 139 193 226 241 188 64 85 17 84 145 248 166 74 18 68 45 246 63 65 233 71 63 16 228 63 131 25 63 231 
165 0 191 150 188 12 235 206 238 124 198 46 199 216 131 244 206 41 53 183 109 117 200 172 180 75 243 243 50 216 244 241 241 176 254 150 126 236 44 68 27 23 28 158 148 234 199 91 162 53 79 106 225 133 181 213 250 231 173 174 216 158 162 214 53 150 195 97 70 222 121 197 124 13 9 67 104 38 120 183 16 90 60 178 47 54 28 220 229 209 122 135 184 175 29 145 17 99 103 138 40 42 151 50 8 255 88 132 182 104 200 243 27 64 41 55 154 14 9 201 149 193 165 178 82 32 22 186 207 62 228 224 112 237 106 200 113 1 49 57 0 76 122 183 131 20 170 140 222 211 
78 131 226 160 163 119 90 115 42 63 83 64 44 190 126 157 191 239 215 192 183 81 119 232 101 33 52 67 244 184 199 214 68 106 78 146 221 120 51 49 184 141 239 54 204 174 37 248 110 221 150 229 197 109 6 250 190 251 178 35 209 246 103 31 137 46 151 188 152 79 73 118 134 22 167 171 14 150 136 164 68 78 17 179 72 207 152 250 243 159 240 90 154 121 136 107 53 32 139 127 150 34 149 61 114 163 211 248 72 24 163 89 203 44 41 99 122 28 2 194 118 156 188 254 8 172 30 147 38 181 181 91 242 39 218 198 31 111 222 195 19 169 239 91 12 105 180 15 43 221 
171 231 249 179 147 111 70 185 109 252 21 140 35 239 65 67 95 51 6 114 249 245 205 215 94 129 128 137 95 141 112 88 156 3 200 71 189 53 251 210 193 65 193 2 61 32 54 97 146 47 164 95 7 170 225 135 159 64 20 253 152 176 134 96 248 246 150 243 249 87 52 182 90 114 136 144 211 74 191 119 106 198 33 253 78 192 92 98 189 61 19 67 125 11 57 22 254 50 118 50 233 12 164 113 100 119 187 190 238 38 78 15 35 13 207 127 212 140 189 34 207 58 132 8 80 151 59 199 162 36 211 160 149 55 211 81 245 119 119 67 239 154 81 221 25 37 237 214 71 188 
17 203 73 97 99 24 40 5 33 252 166 92 51 121 128 41 240 21 108 223 102 189 189 221 226 170 119 41 102 145 245 175 103 88 200 120 93 233 218 3 69 2 124 197 254 109 218 50 76 65 91 9 30 199 179 150 133 26 39 103 201 142 145 145 7 134 122 225 222 191 227 59 132 226 63 95 20 187 160 111 40 190 54 117 84 187 126 123 35 50 10 180 76 17 58 21 242 24 167 213 83 33 183 146 225 203 78 101 58 118 196 113 235 100 44 106 35 79 156 119 3 232 243 61 253 253 85 164 14 169 198 0 59 167 213 137 12 141 0 209 88 235 53 147 85 88 4 241 208 48 
217 195 128 215 192 131 123 206 193 65 206 22 232 163 191 245 48 251 198 137 132 251 28 132 84 32 112 36 80 197 231 208 183 167 84 144 117 21 103 67 43 227 230 235 36 23 230 13 160 106 2 188 239 200 220 95 195 44 36 23 253 219 59 81 108 34 102 211 201 145 182 62 124 219 129 98 232 104 205 234 127 188 178 31 27 117 219 63 141 183 27 200 227 135 235 224 90 180 49 17 243 151 236 116 41 212 220 165 190 91 8 112 122 213 229 85 145 114 12 172 59 240 235 38 208 6 218 2 141 205 153 232 66 194 249 30 104 229 122 112 185 244 69 119 74 214 231 86 130 204 
70 109 63 23 116 122 25 1 160 178 233 122 117 226 72 221 199 138 77 128 168 146 247 34 104 222 23 234 171 97 87 234 183 203 100 254 205 4 21 182 126 46 153 198 224 96 80 85 225 249 50 216 27 127 183 50 17 98 147 121 76 75 99 176 73 187 180 94 134 50 140 83 249 108 10 73 194 163 66 244 3 94 116 228 144 133 189 36 255 116 111 98 214 184 29 34 22 164 210 162 247 134 14 1 184 208 164 177 197 168 251 57 140 61 190 73 155 189 189 44 32 147 80 61 181 191 225 135 119 217 13 141 218 198 47 127 119 61 39 114 14 179 176 211 253 75 12 186 119 202 
78 199 136 3 134 168 139 253 229 152 138 199 94 185 160 214 247 122 72 5 249 248 216 32 68 228 212 187 174 209 131 54 139 9 222 217 7 196 221 145 139 104 75 43 0 66 165 95 71 159 53 31 191 125 3 147 118 177 100 186 232 240 117 198 201 248 138 166 2 21 14 9 64 15 154 230 110 229 133 163 39 68 32 110 216 150 141 60 80 144 44 198 66 246 190 42 156 192 240 171 201 123 186 100 144 40 73 209 203 113 183 235 223 60 130 109 128 210 253 88 152 63 149 87 105 193 23 90 183 225 213 84 69 101 255 142 54 185 255 237 225 223 41 172 76 170 151 73 2 25 
137 151 236 242 89 132 76 16 219 33 100 243 135 99 212 189 28 25 171 253 167 212 169 167 126 65 134 129 90 210 24 70 27 113 203 164 130 166 151 230 153 227 74 109 5 102 134 140 100 46 73 13 213 244 78 91 201 169 45 71 239 72 200 186 237 225 97 132 82 250 103 212 104 108 187 238 248 5 28 66 107 241 54 207 76 255 221 121 71 43 194 15 212 175 240 196 51 67 126 154 23 223 7 210 218 255 215 66 65 67 48 120 18 77 119 239 62 190 27 139 206 239 4 190 179 198 1 50 117 25 17 168 235 235 67 195 45 74 6 94 73 24 171 139 8 233 3 35 116 122 
18 121 57 198 63 7 248 181 197 9 93 199 245 160 224 34 234 203 128 52 142 43 191 148 21 194 173 137 60 181 2 117 216 66 124 234 247 66 176 84 9 168 245 233 178 223 180 167 19 67 201 210 215 74 148 132 117 209 57 138 70 17 20 195 252 22 5 172 88 14 85 79 247 7 164 171 174 153 238 119 120 198 193 140 74 55 94 132 193 243 149 213 196 145 236 10 62 68 205 147 148 210 154 56 224 72 209 215 191 73 131 129 213 113 184 52 55 121 39 130 79 235 6 59 245 155 127 195 45 19 149 107 75 118 254 28 77 152 102 208 224 59 66 159 111 121 32 150 251 216 
129 1 82 119 157 161 58 202 220 207 53 91 69 51 111 147 203 186 99 171 215 165 74 61 31 107 120 26 67 232 28 149 126 185 54 0 131 18 119 184 110 177 235 221 128 182 151 198 97 110 89 171 171 188 22 36 98 90 12 129 239 138 155 38 138 183 56 1 112 166 178 243 131 51 171 27 249 150 137 82 76 53 14 173 89 112 89 101 241 111 239 141 201 122 68 185 123 181 223 46 168 23 97 84 190 90 234 65 172 55 92 186 228 230 43 61 27 28 173 116 169 118 217 238 47 200 163 14 66 75 38 190 159 228 236 138 37 77 193 130 167 165 104 83 227 131 13 144 247 56 
6 208 85 54 152 254 68 219 236 106 153 143 78 133 219 116 210 122 246 121 4 94 204 197 225 217 107 216 18 78 168 103 222 64 101 228 27 82 26 180 225 95 57 188 201 11 55 24 132 59 140 80 1 130 42 108 224 60 186 193 163 152 153 8 124 65 90 151 129 60 246 157 248 191 81 47 215 139 107 99 150 108 229 27 216 197 107 146 134 149 42 31 209 166 96 116 61 226 125 51 127 215 243 208 19 202 91 12 46 242 59 19 13 166 217 120 18 95 14 234 127 223 124 223 84 166 193 209 77 64 168 138 17 188 190 108 200 177 94 3 123 107 170 169 228 188 189 242 167 150 
209 35 245 37 202 116 246 23 84 159 161 21 91 95 86 35 16 103 38 140 211 208 53 50 141 242 157 52 136 129 87 126 115 33 242 69 56 70 106 218 92 97 57 178 0 74 25 91 214 236 126 11 30 164 254 188 117 134 61 2 4 177 54 247 246 141 61 96 175 153 193 231 75 193 193 100 28 251 81 154 69 111 63 27 43 180 38 105 182 36 26 236 171 16 121 175 112 40 166 50 16 228 243 209 125 16 204 201 170 17 45 233 44 126 157 83 238 83 119 25 63 34 130 185 210 156 225 120 172 241 92 29 195 218 79 143 163 66 161 208 82 205 79 253 32 61 230 152 86 132 
186 217 215 140 117 23 5 34 208 97 63 177 59 142 163 222 208 102 175 35 245 254 32 150 59 6 100 145 138 132 106 98 28 224 121 215 2 73 99 65 250 104 207 157 202 159 3 5 194 249 228 226 143 147 233 243 145 115 120 204 213 148 93 78 107 200 151 207 168 146 55 170 47 1 235 51 7 186 44 235 89 187 126 28 175 15 254 39 219 231 187 56 91 39 0 48 246 168 127 45 82 22 47 61 168 54 247 216 33 81 11 159 109 55 174 107 242 137 83 161 193 174 200 194 222 132 106 93 171 189 116 161 250 28 206 242 244 253 67 255 51 176 54 84 27 41 243 110 202 161 
28 147 42 251 23 236 88 194 174 204 99 24 233 49 213 221 47 208 221 98 194 19 183 5 60 170 181 7 76 208 154 118 63 177 98 91 115 16 86 214 41 175 7 254 123 54 206 100 153 144 66 80 149 31 250 74 50 70 27 111 189 90 118 31 181 16 48 12 193 89 187 52 87 54 10 38 155 17 182 221 72 76 252 225 150 46 49 177 157 43 11 19 114 193 35 47 205 228 78 136 24 126 190 34 215 89 52 47 54 124 85 50 93 11 97 142 87 254 185 238 18 43 159 53 90 171 26 169 108 50 39 57 85 255 193 137 46 127 5 131 217 98 142 15 240 230 66 169 212 163 
213 115 161 47 30 179 216 138 233 0 195 3 255 132 53 45 4 138 176 221 19 62 236 24 36 46 122 248 209 106 108 115 20 138 38 233 21 15 24 216 18 241 93 72 241 97 210 240 62 230 29 42 254 205 89 121 11 42 227 48 157 247 40 196 224 148 211 249 31 230 234 52 46 219 12 0 203 105 230 232 202 229 181 8 94 192 51 65 240 140 57 25 182 25 173 84 18 204 24 252 0 235 215 13 209 162 118 255 138 65 0 63 73 230 0 124 203 240 8 41 9 191 107 183 19 164 131 43 189 132 22 208 145 232 204 7 231 164 72 231 70 146 206 209 14 153 16 23 195 16 
214 46 1 233 210 10 20 143 193 42 95 69 18 44 201 250 208 90 225 22 97 175 231 170 73 248 60 12 8 74 58 9 97 12 20 55 155 213 32 251 26 52 39 227 95 247 61 113 13 159 107 245 73 77 237 133 252 245 207 69 255 49 81 19 104 139 232 137 151 3 189 51 230 28 46 36 142 85 195 249 76 12 70 89 145 67 78 96 136 59 145 218 49 250 101 48 131 253 67 64 48 43 93 94 46 235 179 21 228 255 57 43 88 252 110 167 8 246 226 153 208 19 249 54 67 139 51 134 133 99 178 8 193 224 72 116 245 165 115 46 144 203 42 117 114 50 160 85 203 14 
104 197 4 172 80 213 50 213 11 228 221 62 197 37 161 186 203 98 233 91 214 19 208 73 70 112 20 17 126 135 214 131 220 38 88 68 251 99 240 216 161 35 254 66 7 201 164 204 36 122 135 245 195 112 101 215 131 228 94 201 103 58 219 191 127 177 34 111 216 195 146 211 5 154 172 169 102 170 35 237 115 230 93 151 189 225 140 28 170 242 86 133 214 213 55 61 69 15 252 215 226 30 113 142 225 216 56 230 197 171 143 35 67 178 4 207 152 174 193 85 52 151 113 107 212 200 122 208 157 92 238 226 235 207 186 35 181 43 207 68 3 18 246 201 225 142 236 163 228 240 
58 85 158 15 29 210 223 187 61 206 157 183 157 87 20 83 131 255 151 134 34 142 79 241 28 59 3 0 43 229 86 202 136 115 156 194 46 218 209 204 145 177 35 165 127 166 164 28 45 199 111 124 184 7 184 188 149 227 161 177 173 41 178 74 235 8 36 189 123 181 110 170 91 237 118 255 9 153 198 121 64 127 128 109 59 21 233 220 198 161 5 120 133 240 128 50 173 252 124 27 166 160 8 28 86 18 181 177 139 245 176 11 98 119 32 76 246 230 237 49 95 114 13 223 165 18 219 33 2 129 194 176 157 24 203 83 201 212 72 121 230 171 240 113 247 230 124 228 23 156 
87 36 130 252 54 225 29 57 193 223 233 156 247 180 30 192 136 187 58 110 14 42 223 87 17 91 2 40 247 249 77 122 221 131 91 52 188 28 48 165 185 78 90 215 45 226 146 37 81 161 229 48 248 31 140 250 74 131 243 91 253 208 131 89 5 208 117 53 84 46 131 16 5 177 182 152 214 16 57 187 242 49 219 67 43 37 116 30 128 0 238 3 131 243 212 129 41 40 218 172 56 79 93 238 126 51 254 131 239 241 27 202 52 84 239 168 133 111 168 176 114 44 206 70 173 189 110 135 176 167 214 217 149 84 134 148 216 227 133 243 23 185 72 6 98 205 208 10 126 191 
54 76 46 227 9 160 106 186 231 65 147 85 149 25 252 109 253 146 97 20 38 169 26 171 118 234 100 244 169 198 65 215 209 74 119 7 4 94 235 152 180 85 177 176 150 174 66 44 194 104 153 220 19 250 198 120 163 111 62 26 70 15 14 190 23 79 28 2 154 208 87 158 129 238 54 195 26 232 44 179 150 63 174 89 183 81 53 246 107 252 5 122 107 28 201 178 30 99 112 118 2 140 100 56 93 126 32 222 49 183 161 223 16 205 49 69 13 156 65 196 22 173 186 224 95 192 67 207 220 69 91 251 126 184 113 158 150 213 85 56 83 101 5 132 171 18 100 236 215 149 
153 145 49 248 81 72 199 46 40 35 41 107 219 154 177 114 111 47 170 194 205 175 70 35 194 170 136 153 63 51 42 113 32 124 185 185 170 225 178 211 76 121 109 253 156 220 44 120 158 250 234 228 29 148 143 165 67 206 217 5 63 249 158 248 178 201 217 100 69 38 222 239 35 122 194 80 242 47 74 220 11 103 112 169 12 180 141 229 185 28 222 88 235 145 33 42 245 102 35 211 85 252 78 23 34 64 70 70 29 81 150 141 250 224 65 135 71 251 164 83 83 143 57 116 185 23 218 220 168 47 217 158 70 251 113 140 65 191 221 215 0 215 183 29 94 254 170 2 82 236 
145 139 231 75 162 58 39 75 174 0 233 136 252 90 183 61 26 253 21 26 137 204 55 102 203 225 61 29 205 155 168 180 158 74 238 47 149 156 122 126 36 162 217 219 162 243 216 158 13 97 220 68 199 241 37 4 189 243 160 136 167 62 165 150 109 77 50 232 152 87 138 45 50 44 172 11 203 133 108 167 120 52 152 133 56 85 201 216 222 238 22 131 225 132 209 137 108 105 31 246 150 81 34 66 168 237 199 219 148 63 230 44 196 82 130 141 134 96 124 191 227 93 151 180 230 174 29 5 50 180 87 158 246 255 148 190 218 182 253 192 164 194 19 56 79 153 101 203 88 231 
41 240 71 15 158 42 21 208 223 108 110 252 107 2 176 70 184 167 6 92 101 25 149 98 179 250 36 11 225 116 251 40 63 153 82 104 105 49 120 215 46 141 217 222 249 146 133 100 238 234 170 131 77 177 125 113 202 94 229 125 134 37 137 217 141 132 10 5 30 56 146 135 23 139 95 156 240 56 135 154 202 212 75 185 69 22 60 43 147 186 80 28 24 221 161 159 227 191 120 117 70 130 1 165 187 241 222 210 139 168 110 215 97 245 237 158 201 128 88 15 157 112 58 62 15 138 253 135 103 67 10 74 233 197 192 199 151 193 111 5 178 209 251 61 111 196 20 199 211 1 
55 13 130 71 151 31 206 255 93 216 73 90 157 9 157 52 202 134 58 124 77 53 186 189 249 206 142 205 208 253 218 82 196 114 113 251 113 206 66 186 40 17 196 197 233 142 76 135 11 153 187 197 86 245 147 228 42 99 225 36 181 165 241 38 161 203 244 227 61 28 244 174 226 222 105 46 101 45 199 32 187 30 22 198 2 64 139 228 100 31 137 85 130 42 33 56 14 94 94 2 13 83 224 118 111 69 163 81 102 94 127 124 37 71 188 176 101 33 207 103 118 82 75 151 138 213 246 232 255 3 59 13 121 171 16 28 252 240 122 124 54 159 195 156 80 40 24 31 143 212 
113 219 245 251 176 108 228 175 3 31 189 249 202 205 252 199 189 117 67 243 145 6 143 12 46 167 171 189 124 251 152 113 27 72 221 140 248 225 136 181 218 108 130 215 139 63 76 86 51 222 29 194 234 96 106 149 102 230 145 148 87 172 81 53 56 234 22 192 50 240 44 42 199 184 223 20 14 97 242 43 161 220 139 212 113 241 150 2 133 0 174 214 230 231 192 62 167 243 115 212 29 137 140 253 121 154 94 65 197 255 85 80 211 71 65 106 35 198 106 148 156 81 151 93 143 69 80 2 44 109 139 212 106 4 168 201 69 52 200 154 206 156 225 147 6 4 227 112 153 36 
193 48 234 80 117 134 82 162 227 221 118 51 226 30 161 39 82 11 194 32 212 163 179 157 168 150 57 65 186 63 113 164 175 230 42 113 136 14 193 254 65 20 28 226 241 110 238 211 142 194 251 65 95 189 215 152 96 145 215 8 53 135 73 96 248 186 110 185 161 175 205 41 146 191 40 128 146 68 66 141 179 162 74 65 58 171 131 18 179 90 153 253 236 145 183 33 74 88 129 24 130 239 215 170 159 105 238 49 247 161 177 65 227 243 236 102 149 160 192 208 157 172 226 84 206 123 173 79 12 47 63 86 217 222 110 199 15 69 105 192 175 76 179 166 178 73 231 114 25 212 
31 251 116 237 118 17 60 130 101 123 216 18 89 71 65 104 140 26 40 59 226 220 225 75 37 201 151 62 157 73 57 17 187 175 34 218 49 135 199 9 154 4 80 219 127 221 246 217 24 216 65 250 35 106 195 186 70 96 3 107 113 190 169 147 153 226 26 96 145 180 100 194 144 228 203 134 189 28 94 254 249 129 104 17 59 174 11 62 25 206 252 194 46 149 164 159 246 53 50 90 247 77 62 195 1 251 223 145 250 216 23 98 233 117 17 245 246 42 195 49 237 242 111 145 145 108 199 196 1 190 17 247 129 18 82 96 164 144 56 187 140 34 49 134 23 39 232 218 89 249 
204 200 36 94 52 17 34 54 162 51 45 105 69 127 40 233 16 169 165 156 10 214 34 66 253 10 100 86 4 123 31 40 86 83 57 34 137 219 128 183 69 162 54 109 213 70 22 27 226 32 4 4 99 169 15 199 127 19 67 125 59 153 211 116 187 242 79 60 70 148 222 207 1 180 134 24 207 189 56 211 3 155 125 230 99 252 234 166 121 249 63 77 12 250 63 71 54 133 187 21 85 11 201 219 159 152 152 161 107 156 185 232 130 241 229 108 141 94 102 240 171 114 150 235 186 213 112 117 207 197 128 6 161 32 27 57 193 228 213 122 124 87 107 231 196 248 208 42 232 181 
156 126 19 86 83 191 204 35 170 76 41 26 108 68 224 45 40 129 167 164 186 19 139 144 11 91 231 244 16 171 114 36 213 198 227 114 233 141 200 18 167 148 86 135 225 126 8 77 34 195 123 173 83 34 9 58 53 25 230 65 61 187 53 32 45 167 173 246 109 85 138 86 220 107 104 229 185 190 168 52 60 251 86 94 53 140 12 27 205 21 215 2 46 4 169 108 250 23 140 133 109 58 240 214 143 169 148 107 221 209 80 52 47 248 192 59 243 141 80 41 143 127 68 56 235 27 79 119 32 189 177 26 147 64 159 39 172 144 248 252 57 40 245 23 99 232 75 180 17 11 
51 86 152 30 113 39 149 145 95 71 172 175 135 75 108 51 219 255 48 21 38 37 44 31 13 119 71 31 130 170 117 26 94 230 65 145 120 160 175 36 79 69 111 187 140 75 186 19 96 225 71 140 0 119 3 71 156 133 241 169 159 80 200 224 225 61 128 145 36 208 214 156 139 98 192 70 117 47 39 188 122 39 51 218 110 207 102 95 121 105 175 65 238 145 127 141 34 163 109 248 63 238 90 255 190 207 46 73 140 169 143 191 131 182 143 234 221 8 83 75 73 66 171 200 207 90 107 61 235 170 43 13 169 233 5 216 50 95 129 194 47 4 120 187 238 86 122 66 161 9 
132 76 17 83 167 91 144 146 35 187 160 143 164 165 57 215 5 227 153 52 187 17 239 60 103 105 64 9 115 47 85 132 113 252 223 245 143 3 72 47 146 217 212 203 148 217 174 57 13 105 16 252 165 169 102 230 186 217 21 34 93 134 43 61 123 128 64 195 125 210 156 12 157 49 59 76 106 15 181 122 233 91 35 246 65 221 243 86 255 89 220 42 50 87 171 143 26 40 204 183 52 12 232 111 222 82 126 124 204 103 200 239 94 125 204 81 216 204 170 25 246 220 111 161 107 75 201 56 162 253 68 189 108 35 116 235 159 92 82 103 174 176 228 122 1 189 105 171 214 53 
135 70 1 243 145 248 43 52 153 111 241 99 146 101 96 49 193 205 152 111 184 125 233 10 58 82 187 16 135 188 86 137 104 232 129 239 28 26 226 13 125 13 114 222 125 51 171 15 162 99 65 139 109 217 221 40 86 100 229 144 237 77 161 110 60 247 137 31 223 6 44 251 228 169 8 143 185 122 242 250 173 96 211 79 136 42 218 109 186 183 186 91 28 247 83 9 22 50 120 66 46 1 236 54 7 165 177 236 159 94 123 114 174 110 156 136 206 87 64 86 178 92 196 5 101 126 56 221 117 102 222 139 156 230 206 77 210 186 172 77 95 90 187 254 226 137 112 34 224 13 
126 164 100 228 34 22 193 152 28 160 35 84 134 241 186 88 171 86 165 10 164 97 8 80 234 121 170 202 134 140 110 234 175 145 0 45 41 28 17 76 112 211 62 42 115 233 129 249 244 37 81 252 117 246 117 31 87 251 171 66 229 90 12 230 136 123 2 153 12 115 108 53 157 223 129 30 216 191 67 41 169 184 32 157 215 119 153 131 185 15 221 198 10 101 65 240 255 77 214 107 130 216 75 3 75 35 195 233 77 108 7 109 9 75 228 162 3 158 177 219 100 188 94 165 172 59 242 130 161 116 90 160 119 166 11 58 143 86 166 150 122 175 225 199 82 229 52 3 192 24 
191 30 182 107 89 26 237 250 191 72 154 177 238 166 37 125 252 157 19 118 215 245 61 126 218 113 45 154 138 127 184 64 131 17 91 66 12 26 174 166 204 155 76 241 227 73 142 209 191 102 78 253 228 98 110 17 87 248 145 49 57 20 203 148 86 131 174 4 148 122 160 160 108 131 71 250 85 147 96 163 220 68 5 156 86 92 153 231 141 7 251 88 0 81 219 57 86 112 205 246 16 123 121 87 246 206 235 98 114 199 92 119 99 189 212 252 1 97 4 87 186 4 62 149 61 57 5 10 139 22 133 225 109 123 215 88 221 80 32 58 31 131 247 145 128 248 8 132 80 220 
136 142 62 197 200 248 207 83 141 84 52 147 208 11 169 173 91 22 231 122 111 222 11 143 215 20 18 39 240 146 181 46 22 125 38 158 208 180 99 4 71 50 15 240 135 107 6 87 229 117 4 241 4 236 5 23 202 245 169 161 36 192 200 74 94 126 254 194 251 69 244 204 53 123 208 60 210 224 177 215 75 182 195 48 205 141 33 118 47 38 54 247 28 149 117 64 87 113 138 75 61 137 199 13 206 153 237 4 112 56 64 51 105 241 193 138 167 240 177 116 231 205 235 93 13 33 206 151 182 11 32 13 24 239 89 6 243 32 62 51 185 167 36 42 50 204 93 227 64 30 
176 43 14 189 77 246 84 3 83 117 17 33 100 106 44 87 138 68 138 67 74 174 109 137 122 203 48 187 233 98 230 248 69 51 238 245 55 65 178 72 98 7 178 142 124 60 210 224 127 29 55 237 166 193 184 214 111 161 57 234 153 126 165 135 116 139 200 38 191 42 45 246 184 169 62 139 137 240 168 192 44 78 129 171 36 241 152 93 219 80 220 128 242 80 11 139 118 202 19 164 192 219 77 254 6 215 238 190 151 26 73 25 198 241 10 94 63 229 175 100 101 161 193 112 44 157 59 63 237 251 27 100 250 33 8 232 223 85 3 41 44 201 26 196 39 90 221 214 190 231 
119 127 204 164 29 49 227 10 161 254 110 220 31 118 216 255 204 210 40 248 186 66 188 189 156 153 134 90 128 174 218 76 132 247 125 252 1 31 160 112 251 131 230 211 130 178 165 161 171 96 160 103 29 200 1 164 11 129 82 167 206 214 2 75 210 220 106 114 211 102 246 212 57 120 68 223 25 43 63 186 221 92 130 136 0 141 240 82 53 241 41 55 114 251 19 64 110 230 140 100 186 246 220 255 92 245 42 150 175 7 117 50 144 180 191 128 16 244 113 17 43 227 99 62 36 140 36 176 136 223 166 246 222 3 90 8 153 54 15 14 43 159 194 219 31 210 13 144 227 204 
116 71 193 152 211 236 72 91 43 238 81 79 241 171 46 138 225 12 152 13 20 90 232 36 45 245 195 16 193 227 87 130 115 43 111 231 134 154 127 216 233 199 131 24 182 101 36 167 114 57 50 90 93 202 79 32 37 16 3 82 147 119 98 2 94 186 156 222 229 133 165 107 157 91 67 194 3 199 251 53 44 88 255 158 120 36 248 124 118 71 243 217 87 81 147 234 47 120 236 213 227 136 48 39 14 51 238 171 104 26 109 104 184 104 140 176 192 3 247 57 220 78 181 111 57 168 231 37 249 202 174 41 241 188 254 223 103 46 249 213 98 177 61 202 97 254 50 88 55 191 
167 236 194 224 148 158 5 141 13 179 182 244 111 180 190 215 227 176 172 69 143 233 15 137 231 66 58 30 1 156 10 195 244 158 97 155 44 110 123 226 98 129 151 32 52 122 208 164 191 96 123 206 233 39 16 35 16 17 191 248 212 180 22 53 79 33 163 203 191 5 76 235 38 128 206 246 36 101 86 159 223 63 198 158 99 215 108 34 207 125 214 229 142 38 6 99 241 198 152 61 177 60 189 127 65 226 228 103 129 195 94 72 97 180 31 206 244 238 75 87 211 217 121 218 60 80 160 213 118 81 17 103 209 82 164 181 186 97 121 24 67 218 204 197 168 192 13 243 23 44 
205 145 26 9 225 237 222 87 199 239 190 103 66 98 185 252 195 138 20 7 63 224 204 184 161 217 147 184 5 59 73 31 47 42 12 252 129 212 5 63 59 228 161 244 211 101 126 21 108 190 17 56 118 37 17 9 6 22 69 167 53 116 95 65 112 169 21 117 211 81 89 85 69 45 148 196 66 54 130 84 155 248 121 7 2 127 63 71 38 80 187 134 102 43 47 155 160 2 220 250 87 242 39 236 67 105 34 136 189 189 76 55 196 206 182 3 199 221 83 201 99 185 16 146 84 203 148 48 246 236 34 150 216 101 144 250 238 183 183 58 33 123 9 222 126 208 21 209 153 204 
138 169 169 222 116 12 14 106 158 49 0 50 150 145 30 132 72 246 191 105 240 200 72 167 152 93 34 49 41 160 218 210 113 78 222 251 184 124 217 184 175 232 73 205 25 146 196 175 251 180 52 67 92 243 161 126 187 202 31 83 157 144 132 123 140 94 248 101 172 167 77 100 116 102 28 56 22 102 237 74 248 73 61 243 199 248 55 230 75 216 119 207 162 3 45 63 104 217 187 182 61 179 28 89 90 50 191 206 124 183 7 185 171 244 177 226 61 252 186 4 203 92 235 248 156 98 209 87 101 14 10 205 104 100 131 39 50 160 223 57 210 138 45 79 108 106 8 38 111 186 
130 90 182 30 188 130 117 33 122 127 238 76 227 114 90 22 18 194 79 228 234 125 51 201 231 60 83 86 246 191 176 172 229 108 46 103 141 169 134 124 245 251 238 79 123 0 18 94 228 252 116 24 197 196 84 24 65 74 215 40 246 188 127 37 35 47 206 169 156 195 165 41 18 32 165 36 126 147 32 243 147 229 183 120 253 248 144 212 32 228 144 159 46 180 207 36 93 107 73 2 148 23 34 58 218 161 205 237 148 97 17 75 217 50 67 105 23 99 77 21 3 123 233 210 159 122 61 233 46 209 0 139 11 219 142 217 200 176 58 217 81 19 11 229 124 35 48 201 56 115 
68 33 215 227 155 218 204 201 172 205 85 233 168 227 186 112 147 198 73 229 159 85 202 217 120 251 236 176 110 104 209 69 49 109 31 117 54 203 88 139 180 37 110 111 242 2 53 154 231 212 10 177 173 83 172 153 168 27 1 32 96 50 208 128 167 162 75 255 15 0 36 69 111 22 209 164 176 63 120 186 65 37 14 40 190 182 218 191 215 134 241 167 161 152 73 2 151 88 130 188 158 205 210 111 205 131 174 60 61 240 224 75 24 88 2 242 125 217 121 59 128 26 250 202 28 235 34 158 131 192 108 27 47 57 215 222 118 169 206 86 44 230 175 106 217 44 181 82 104 183 
